<?xml version="1.0" encoding="UTF-8" standalone="no"?>
<!-- Created with Inkscape (http://www.inkscape.org/) -->

<svg
   xmlns:dc="http://purl.org/dc/elements/1.1/"
   xmlns:cc="http://creativecommons.org/ns#"
   xmlns:rdf="http://www.w3.org/1999/02/22-rdf-syntax-ns#"
   xmlns:svg="http://www.w3.org/2000/svg"
   xmlns="http://www.w3.org/2000/svg"
   xmlns:sodipodi="http://sodipodi.sourceforge.net/DTD/sodipodi-0.dtd"
   xmlns:inkscape="http://www.inkscape.org/namespaces/inkscape"
   width="210mm"
   height="297mm"
   viewBox="0 0 744.09448819 1052.3622047"
   id="svg2"
   version="1.1"
   inkscape:version="0.91 r13725"
   sodipodi:docname="logo.svg">
  <defs
     id="defs4" />
  <sodipodi:namedview
     id="base"
     pagecolor="#ffffff"
     bordercolor="#666666"
     borderopacity="1.0"
     inkscape:pageopacity="0.0"
     inkscape:pageshadow="2"
     inkscape:zoom="0.0625"
     inkscape:cx="-3222.6562"
     inkscape:cy="-186.5437"
     inkscape:document-units="px"
     inkscape:current-layer="layer5"
     showgrid="true"
     inkscape:window-width="1920"
     inkscape:window-height="1026"
     inkscape:window-x="0"
     inkscape:window-y="0"
     inkscape:window-maximized="1">
    <inkscape:grid
       type="xygrid"
       id="grid4136" />
  </sodipodi:namedview>
  <metadata
     id="metadata7">
    <rdf:RDF>
      <cc:Work
         rdf:about="">
        <dc:format>image/svg+xml</dc:format>
        <dc:type
           rdf:resource="http://purl.org/dc/dcmitype/StillImage" />
        <dc:title></dc:title>
      </cc:Work>
    </rdf:RDF>
  </metadata>
  <g
     inkscape:groupmode="layer"
     id="layer5"
     inkscape:label="background">
    <circle
       style="fill:#800000;fill-opacity:1;fill-rule:nonzero;stroke:#800000;stroke-width:1.09621501;stroke-linecap:square;stroke-linejoin:round;stroke-miterlimit:4;stroke-dasharray:none;stroke-dashoffset:0;stroke-opacity:1"
       id="path4249"
       cx="88"
       cy="78.362213"
       r="4647.9517" />
  </g>
  <g
     inkscape:groupmode="layer"
     id="layer3"
     inkscape:label="trace"
     style="display:none">
    <path
       style="fill:none;fill-rule:evenodd;stroke:#00ffff;stroke-width:15.39999962;stroke-linecap:butt;stroke-linejoin:miter;stroke-miterlimit:4;stroke-dasharray:none;stroke-opacity:1"
       d="m -960.45898,-3746.2773 c -76.49702,231.3254 -143.48292,465.7101 -204.97542,701.4407 -96.1628,370.765 -176.6714,745.9149 -231.8997,1125.0568 -40.9602,283.4769 -67.8835,569.5732 -66.7108,856.2114 1.212,208.57964 17.3384,418.14004 64.7169,621.67711 36.8748,156.82847 93.7232,311.14907 185.4127,444.6135829 66.7826,96.9257651 153.3742,181.0568371 255.84005,239.6233871 75.14083,43.41651 157.88792,72.62902 242.61093,90.62617 145.1652,40.53846 287.43014,97.88816 411.07771,185.30925 102.53135,72.36166 190.66619,168.32883 243.435922,282.94981 44.928129,96.64885 63.874413,204.67549 57.956875,311.01719 -1.3019638,58.932 0.1545979,117.8833 -0.1594791,176.824 1.3337531,555.2149 3.03390985,1110.4321 4.11206998,1665.6456 -3.41804418,120.1198 -25.56316488,240.0506 -67.53679488,352.8341 -43.340923,115.4617 -111.781543,223.646 -208.293073,301.8427 -63.9796,52.0742 -138.98598,89.5191 -218.08515,112.3224 -144.06629,45.7024 -284.92468,102.5174 -432.79181,135.1561 -52.42238,11.2704 -105.84325,18.441 -159.53905,16.7754 -16.6495,3.8372 -25.7923,22.6084 -23.0215,38.6739 2.6366,25.3629 15.5266,48.2399 28.8164,69.4453 6.3251,7.8444 17.1333,8.6743 26.3984,7.5694 408.03194,-0.5569 816.0633,-1.9568 1224.09568,-1.877 351.42809,0.4906 702.86513,1.3465 1054.28722,1.8662 13.7112,-2.521 18.7077,-17.4027 24.8191,-27.9768 10.3215,-19.6219 20.1263,-41.9608 16.052,-64.5955 -3.0858,-13.8773 -16.6366,-25.6382 -31.3296,-23.1535 -85.0589,1.6007 -168.4833,-19.0303 -249.80726,-42.1606 C 860.63575,3795.1654 739.51314,3748.7026 615.8194,3710.1841 509.30681,3673.841 413.77151,3606.7898 343.61097,3518.8033 259.43001,3414.3561 208.72775,3286.1947 181.4691,3155.7103 c -17.16393,-81.4556 -25.53482,-164.6282 -23.82822,-247.8254 1.46558,-594.0864 3.21564,-1188.1762 4.43516,-1782.2605 -4.97935,-83.6672 2.64096,-168.50567 28.19154,-248.55995 C 221.82425,776.35099 279.63412,684.35652 354.30171,609.9241 466.04805,497.72386 609.47714,422.53962 757.44922,369.72266 808.00691,351.96255 859.26331,335.71334 911.62816,324.15127 1034.0475,293.95792 1149.9189,235.14144 1243.586,150.34256 c 104.1239,-93.49737 180.7205,-214.292108 234.5193,-342.71152 69.663,-165.47297 105.609,-343.08965 125.5392,-520.90051 26.3324,-239.93875 22.8938,-482.19963 5.7961,-722.66063 -25.1886,-345.5279 -79.9303,-688.3035 -149.5762,-1027.4684 -76.053,-368.2293 -170.3673,-732.624 -279.9939,-1092.2606 -19.6649,-64.2256 -39.9438,-128.2668 -61.2201,-191.9776 -692.88347,0 -1385.76694,0 -2078.6504,0 l -0.3199,0.9474 -0.13908,0.412 z"
       id="path4171-3"
       inkscape:connector-curvature="0" />
  </g>
  <g
     inkscape:groupmode="layer"
     id="layer4"
     inkscape:label="remplissage verre"
     style="display:inline">
    <path
       style="display:inline;fill:#ffffff;fill-opacity:1;fill-rule:evenodd;stroke:none;stroke-width:1;stroke-linecap:butt;stroke-linejoin:miter;stroke-miterlimit:4;stroke-dasharray:none;stroke-opacity:1"
       d="m -961.00376,-3746.5936 c -76.49714,231.3254 -143.48304,465.7101 -204.97554,701.4407 -96.1628,370.765 -176.6714,745.9149 -231.8997,1125.0568 -40.9602,283.4769 -67.8835,569.5732 -66.7108,856.2114 1.212,208.57958 17.3384,418.13998 64.7169,621.67708 36.8748,156.8285 93.7232,311.1491 185.4127,444.613601 66.7826,96.925799 153.3742,181.056799 255.84014,239.623399 75.1408,43.4165 157.8879,72.629 242.6109,90.6261 145.1652,40.5385 287.4302,97.8882 411.0777,185.3093 102.5314,72.3617 190.6662,168.3288 243.436,282.9498 44.9281,96.6489 63.8744,204.67552 57.9568,311.01722 -1.3019,58.932 0.1546,117.8833 -0.1594,176.824 1.3337,555.2149 3.0339,1110.4321 4.112,1665.6456 -3.418,120.1198 -25.5631,240.0506 -67.5368,352.8341 -43.3409,115.4617 -111.7815,223.646 -208.293,301.8427 -63.9796,52.0742 -138.986,89.5191 -218.0852,112.3224 -144.0663,45.7024 -284.9247,102.5174 -432.7918,135.1561 -52.4224,11.2704 -105.84334,18.441 -159.53914,16.7754 -16.6495,3.8372 -25.7923,22.6084 -23.0215,38.6739 2.6366,25.3629 15.5266,48.2399 28.8164,69.4453 6.3251,7.8444 17.1333,8.6743 26.3984,7.5694 408.03204,-0.5569 816.06334,-1.9568 1224.09574,-1.877 351.4281,0.4906 702.86516,1.3465 1054.28716,1.8662 13.7112,-2.521 18.7077,-17.4027 24.8191,-27.9768 10.3215,-19.6219 20.1263,-41.9608 16.052,-64.5955 -3.0858,-13.8773 -16.6366,-25.6382 -31.3296,-23.1535 -85.0589,1.6007 -168.4833,-19.0303 -249.8072,-42.1606 -124.3876,-36.2744 -245.5102,-82.7372 -369.20396,-121.2557 -106.5125,-36.3431 -202.0478,-103.3943 -272.2084,-191.3808 -84.1809,-104.4472 -134.8832,-232.6086 -162.1419,-363.093 -17.1639,-81.4556 -25.5348,-164.6282 -23.8282,-247.8254 1.4656,-594.0864 3.2157,-1188.1762 4.4352,-1782.2605 -4.9794,-83.6672 2.6409,-168.50572 28.1915,-248.56002 31.5567,-100.7134 89.3666,-192.7079 164.0342,-267.1403 111.7463,-112.2002 255.1754,-187.3845 403.14746,-240.2014 50.5577,-17.7602 101.8141,-34.0094 154.1789,-45.5714 122.4193,-30.1934 238.2907,-89.0099 331.9578,-173.8087 104.1239,-93.497399 180.7205,-214.2921 234.5193,-342.7116 69.663,-165.4729 105.609,-343.0896 125.5392,-520.9005 26.3324,-239.9387 22.8938,-482.19958 5.7961,-722.66058 -25.1886,-345.5279 -79.9303,-688.3035 -149.5762,-1027.4684 -76.053,-368.2293 -170.3673,-732.624 -279.9939,-1092.2606 -19.6649,-64.2256 -39.9438,-128.2668 -61.2201,-191.9776 -692.88336,0 -1385.76686,0 -2078.65036,0 l -0.3199,0.9474 -0.139,0.412 z"
       id="path4171-3-6"
       inkscape:connector-curvature="0" />
  </g>
</svg>
